# xmcd
#
# Track frame offsets:
#	150
#	13443
#	31421
#	49709
#	68678
#	85841
#	97134
#	119541
#	133071
#	147997
#	164112
#	176749
#
# Disc length: 2522 seconds
#
# Revision: 3
# Processed by: cddbd v1.5.2PL0 Copyright (c) Steve Scherf et al.
# Submitted via: audiograbber 1.83.01
#
DISCID=b409d80c
DTITLE=Jan Hirte's Blue Ribbon feat. Elen Wendt - Let it roll
DYEAR=2014
DGENRE=Blues
TTITLE0=Dark Shuffle
TTITLE1=Sweet Sixteen
TTITLE2=Any World That's Changing
TTITLE3=Breaking Up Somebody's Home
TTITLE4=Bring It On Home
TTITLE5=08 - 16
TTITLE6=It's All Right
TTITLE7=Let It Roll
TTITLE8=I Got The Same Old Blues
TTITLE9=Precious Secret
TTITLE10=A Good Man Is Hard To Find
TTITLE11=You Got The Walk That Lonesome Valley
EXTD=
EXTT0=
EXTT1=
EXTT2=
EXTT3=
EXTT4=
EXTT5=
EXTT6=
EXTT7=
EXTT8=
EXTT9=
EXTT10=
EXTT11=
PLAYORDER=
